{
    "asset" : {
        "generator" : "Khronos glTF Blender I/O v1.4.40",
        "version" : "2.0"
    },
    "scene" : 0,
    "scenes" : [
        {
            "name" : "Scene",
            "nodes" : [
                0,
                1,
                2,
                3,
                4
            ]
        }
    ],
    "nodes" : [
        {
            "name" : "Camera",
            "rotation" : [
                0.6578249335289001,
                -0.22376234829425812,
                0.21442806720733643,
                0.6864527463912964
            ],
            "translation" : [
                -2.763216495513916,
                0.019455090165138245,
                4.596920490264893
            ]
        },
        {
            "name" : "Reference",
            "rotation" : [
                0.7071068286895752,
                0,
                0,
                0.7071067094802856
            ]
        },
        {
            "mesh" : 0,
            "name" : "Plane",
            "scale" : [
                8.417928695678711,
                8.417928695678711,
                8.417928695678711
            ],
            "translation" : [
                1.241286039352417,
                -0.7428756356239319,
                0.6132578253746033
            ]
        },
        {
            "name" : "Sun",
            "translation" : [
                -3.9578423500061035,
                6.730888366699219,
                -0.022039741277694702
            ]
        },
        {
            "mesh" : 1,
            "name" : "Body",
            "translation" : [
                0,
                -0.09801245480775833,
                0
            ]
        }
    ],
    "materials" : [
        {
            "doubleSided" : true,
            "name" : "Material",
            "pbrMetallicRoughness" : {
                "baseColorFactor" : [
                    0.03741013631224632,
                    0.03187800943851471,
                    0.032716453075408936,
                    1
                ],
                "metallicFactor" : 0,
                "roughnessFactor" : 0.18131867051124573
            }
        },
        {
            "doubleSided" : true,
            "name" : "Carbody",
            "pbrMetallicRoughness" : {
                "baseColorFactor" : [
                    1,
                    0.017202435061335564,
                    0.005020449869334698,
                    1
                ],
                "metallicFactor" : 0,
                "roughnessFactor" : 0.5
            }
        },
        {
            "doubleSided" : true,
            "emissiveFactor" : [
                0.1851295866072178,
                1,
                1
            ],
            "name" : "Lights",
            "pbrMetallicRoughness" : {}
        },
        {
            "doubleSided" : true,
            "name" : "Tyre",
            "pbrMetallicRoughness" : {
                "baseColorFactor" : [
                    0.014669444411993027,
                    0.014669444411993027,
                    0.014669444411993027,
                    1
                ],
                "metallicFactor" : 0,
                "roughnessFactor" : 0.7747253179550171
            }
        },
        {
            "doubleSided" : true,
            "name" : "Rims",
            "pbrMetallicRoughness" : {
                "baseColorFactor" : [
                    0.2810092568397522,
                    0.2810092568397522,
                    0.2810092568397522,
                    1
                ],
                "metallicFactor" : 0.8901098966598511,
                "roughnessFactor" : 0.5
            }
        },
        {
            "doubleSided" : true,
            "name" : "Outerrims",
            "pbrMetallicRoughness" : {
                "baseColorFactor" : [
                    0.15232469141483307,
                    0.15232469141483307,
                    0.15232469141483307,
                    1
                ],
                "metallicFactor" : 0.7472527623176575,
                "roughnessFactor" : 0.13736262917518616
            }
        },
        {
            "doubleSided" : true,
            "name" : "WindShield",
            "pbrMetallicRoughness" : {
                "baseColorFactor" : [
                    0.026250123977661133,
                    0.3445754051208496,
                    0.4109392464160919,
                    1
                ],
                "metallicFactor" : 0,
                "roughnessFactor" : 0.5
            }
        }
    ],
    "meshes" : [
        {
            "name" : "Plane",
            "primitives" : [
                {
                    "attributes" : {
                        "POSITION" : 0,
                        "NORMAL" : 1,
                        "TEXCOORD_0" : 2
                    },
                    "indices" : 3,
                    "material" : 0
                }
            ]
        },
        {
            "name" : "Cube.007",
            "primitives" : [
                {
                    "attributes" : {
                        "POSITION" : 4,
                        "NORMAL" : 5,
                        "TEXCOORD_0" : 6,
                        "COLOR_0" : 7
                    },
                    "indices" : 8,
                    "material" : 1
                },
                {
                    "attributes" : {
                        "POSITION" : 9,
                        "NORMAL" : 10,
                        "TEXCOORD_0" : 11,
                        "COLOR_0" : 12
                    },
                    "indices" : 13,
                    "material" : 2
                },
                {
                    "attributes" : {
                        "POSITION" : 14,
                        "NORMAL" : 15,
                        "TEXCOORD_0" : 16,
                        "COLOR_0" : 17
                    },
                    "indices" : 18,
                    "material" : 3
                },
                {
                    "attributes" : {
                        "POSITION" : 19,
                        "NORMAL" : 20,
                        "TEXCOORD_0" : 21,
                        "COLOR_0" : 22
                    },
                    "indices" : 23,
                    "material" : 4
                },
                {
                    "attributes" : {
                        "POSITION" : 24,
                        "NORMAL" : 25,
                        "TEXCOORD_0" : 26,
                        "COLOR_0" : 27
                    },
                    "indices" : 28,
                    "material" : 5
                },
                {
                    "attributes" : {
                        "POSITION" : 29,
                        "NORMAL" : 30,
                        "TEXCOORD_0" : 31,
                        "COLOR_0" : 32
                    },
                    "indices" : 33,
                    "material" : 6
                }
            ]
        }
    ],
    "accessors" : [
        {
            "bufferView" : 0,
            "componentType" : 5126,
            "count" : 4,
            "max" : [
                1,
                0,
                1
            ],
            "min" : [
                -1,
                0,
                -1
            ],
            "type" : "VEC3"
        },
        {
            "bufferView" : 1,
            "componentType" : 5126,
            "count" : 4,
            "type" : "VEC3"
        },
        {
            "bufferView" : 2,
            "componentType" : 5126,
            "count" : 4,
            "type" : "VEC2"
        },
        {
            "bufferView" : 3,
            "componentType" : 5123,
            "count" : 6,
            "type" : "SCALAR"
        },
        {
            "bufferView" : 4,
            "componentType" : 5126,
            "count" : 4652,
            "max" : [
                0.8360221982002258,
                0.6550969481468201,
                2.2904086112976074
            ],
            "min" : [
                -0.8360222578048706,
                -0.5356833934783936,
                -2.234163284301758
            ],
            "type" : "VEC3"
        },
        {
            "bufferView" : 5,
            "componentType" : 5126,
            "count" : 4652,
            "type" : "VEC3"
        },
        {
            "bufferView" : 6,
            "componentType" : 5126,
            "count" : 4652,
            "type" : "VEC2"
        },
        {
            "bufferView" : 7,
            "componentType" : 5123,
            "count" : 4652,
            "normalized" : true,
            "type" : "VEC4"
        },
        {
            "bufferView" : 8,
            "componentType" : 5123,
            "count" : 6978,
            "type" : "SCALAR"
        },
        {
            "bufferView" : 9,
            "componentType" : 5126,
            "count" : 16,
            "max" : [
                0.6679008603096008,
                0.09391269832849503,
                2.238414764404297
            ],
            "min" : [
                -0.6679023504257202,
                -0.026841316372156143,
                -2.1220879554748535
            ],
            "type" : "VEC3"
        },
        {
            "bufferView" : 10,
            "componentType" : 5126,
            "count" : 16,
            "type" : "VEC3"
        },
        {
            "bufferView" : 11,
            "componentType" : 5126,
            "count" : 16,
            "type" : "VEC2"
        },
        {
            "bufferView" : 12,
            "componentType" : 5123,
            "count" : 16,
            "normalized" : true,
            "type" : "VEC4"
        },
        {
            "bufferView" : 13,
            "componentType" : 5123,
            "count" : 24,
            "type" : "SCALAR"
        },
        {
            "bufferView" : 14,
            "componentType" : 5126,
            "count" : 2532,
            "max" : [
                0.7789749503135681,
                0.6285262703895569,
                2.1749730110168457
            ],
            "min" : [
                -0.7789756059646606,
                -0.6272119283676147,
                -2.234163284301758
            ],
            "type" : "VEC3"
        },
        {
            "bufferView" : 15,
            "componentType" : 5126,
            "count" : 2532,
            "type" : "VEC3"
        },
        {
            "bufferView" : 16,
            "componentType" : 5126,
            "count" : 2532,
            "type" : "VEC2"
        },
        {
            "bufferView" : 17,
            "componentType" : 5123,
            "count" : 2532,
            "normalized" : true,
            "type" : "VEC4"
        },
        {
            "bufferView" : 18,
            "componentType" : 5123,
            "count" : 3864,
            "type" : "SCALAR"
        },
        {
            "bufferView" : 19,
            "componentType" : 5126,
            "count" : 1088,
            "max" : [
                0.7142238020896912,
                -0.12974902987480164,
                2.179777145385742
            ],
            "min" : [
                -0.7142239212989807,
                -0.5356833934783936,
                -1.3547163009643555
            ],
            "type" : "VEC3"
        },
        {
            "bufferView" : 20,
            "componentType" : 5126,
            "count" : 1088,
            "type" : "VEC3"
        },
        {
            "bufferView" : 21,
            "componentType" : 5126,
            "count" : 1088,
            "type" : "VEC2"
        },
        {
            "bufferView" : 22,
            "componentType" : 5123,
            "count" : 1088,
            "normalized" : true,
            "type" : "VEC4"
        },
        {
            "bufferView" : 23,
            "componentType" : 5123,
            "count" : 1704,
            "type" : "SCALAR"
        },
        {
            "bufferView" : 24,
            "componentType" : 5126,
            "count" : 608,
            "max" : [
                0.8193466663360596,
                0.3053886592388153,
                2.2988643646240234
            ],
            "min" : [
                -0.8193466663360596,
                -0.5763494968414307,
                -2.1061182022094727
            ],
            "type" : "VEC3"
        },
        {
            "bufferView" : 25,
            "componentType" : 5126,
            "count" : 608,
            "type" : "VEC3"
        },
        {
            "bufferView" : 26,
            "componentType" : 5126,
            "count" : 608,
            "type" : "VEC2"
        },
        {
            "bufferView" : 27,
            "componentType" : 5123,
            "count" : 608,
            "normalized" : true,
            "type" : "VEC4"
        },
        {
            "bufferView" : 28,
            "componentType" : 5123,
            "count" : 912,
            "type" : "SCALAR"
        },
        {
            "bufferView" : 29,
            "componentType" : 5126,
            "count" : 64,
            "max" : [
                0.7059599757194519,
                0.615940272808075,
                0.8199363350868225
            ],
            "min" : [
                -0.7059608697891235,
                0.26322200894355774,
                -1.0486056804656982
            ],
            "type" : "VEC3"
        },
        {
            "bufferView" : 30,
            "componentType" : 5126,
            "count" : 64,
            "type" : "VEC3"
        },
        {
            "bufferView" : 31,
            "componentType" : 5126,
            "count" : 64,
            "type" : "VEC2"
        },
        {
            "bufferView" : 32,
            "componentType" : 5123,
            "count" : 64,
            "normalized" : true,
            "type" : "VEC4"
        },
        {
            "bufferView" : 33,
            "componentType" : 5123,
            "count" : 96,
            "type" : "SCALAR"
        }
    ],
    "bufferViews" : [
        {
            "buffer" : 0,
            "byteLength" : 48,
            "byteOffset" : 0
        },
        {
            "buffer" : 0,
            "byteLength" : 48,
            "byteOffset" : 48
        },
        {
            "buffer" : 0,
            "byteLength" : 32,
            "byteOffset" : 96
        },
        {
            "buffer" : 0,
            "byteLength" : 12,
            "byteOffset" : 128
        },
        {
            "buffer" : 0,
            "byteLength" : 55824,
            "byteOffset" : 140
        },
        {
            "buffer" : 0,
            "byteLength" : 55824,
            "byteOffset" : 55964
        },
        {
            "buffer" : 0,
            "byteLength" : 37216,
            "byteOffset" : 111788
        },
        {
            "buffer" : 0,
            "byteLength" : 37216,
            "byteOffset" : 149004
        },
        {
            "buffer" : 0,
            "byteLength" : 13956,
            "byteOffset" : 186220
        },
        {
            "buffer" : 0,
            "byteLength" : 192,
            "byteOffset" : 200176
        },
        {
            "buffer" : 0,
            "byteLength" : 192,
            "byteOffset" : 200368
        },
        {
            "buffer" : 0,
            "byteLength" : 128,
            "byteOffset" : 200560
        },
        {
            "buffer" : 0,
            "byteLength" : 128,
            "byteOffset" : 200688
        },
        {
            "buffer" : 0,
            "byteLength" : 48,
            "byteOffset" : 200816
        },
        {
            "buffer" : 0,
            "byteLength" : 30384,
            "byteOffset" : 200864
        },
        {
            "buffer" : 0,
            "byteLength" : 30384,
            "byteOffset" : 231248
        },
        {
            "buffer" : 0,
            "byteLength" : 20256,
            "byteOffset" : 261632
        },
        {
            "buffer" : 0,
            "byteLength" : 20256,
            "byteOffset" : 281888
        },
        {
            "buffer" : 0,
            "byteLength" : 7728,
            "byteOffset" : 302144
        },
        {
            "buffer" : 0,
            "byteLength" : 13056,
            "byteOffset" : 309872
        },
        {
            "buffer" : 0,
            "byteLength" : 13056,
            "byteOffset" : 322928
        },
        {
            "buffer" : 0,
            "byteLength" : 8704,
            "byteOffset" : 335984
        },
        {
            "buffer" : 0,
            "byteLength" : 8704,
            "byteOffset" : 344688
        },
        {
            "buffer" : 0,
            "byteLength" : 3408,
            "byteOffset" : 353392
        },
        {
            "buffer" : 0,
            "byteLength" : 7296,
            "byteOffset" : 356800
        },
        {
            "buffer" : 0,
            "byteLength" : 7296,
            "byteOffset" : 364096
        },
        {
            "buffer" : 0,
            "byteLength" : 4864,
            "byteOffset" : 371392
        },
        {
            "buffer" : 0,
            "byteLength" : 4864,
            "byteOffset" : 376256
        },
        {
            "buffer" : 0,
            "byteLength" : 1824,
            "byteOffset" : 381120
        },
        {
            "buffer" : 0,
            "byteLength" : 768,
            "byteOffset" : 382944
        },
        {
            "buffer" : 0,
            "byteLength" : 768,
            "byteOffset" : 383712
        },
        {
            "buffer" : 0,
            "byteLength" : 512,
            "byteOffset" : 384480
        },
        {
            "buffer" : 0,
            "byteLength" : 512,
            "byteOffset" : 384992
        },
        {
            "buffer" : 0,
            "byteLength" : 192,
            "byteOffset" : 385504
        }
    ],
    "buffers" : [
        {
            "byteLength" : 385696,
            "uri" : "data:application/octet-stream;base64,"
        }
    ]
}
